<?xml version="1.0" encoding="utf-8"?>

<!DOCTYPE svg PUBLIC "-//W3C//DTD SVG 1.1//EN" "http://www.w3.org/Graphics/SVG/1.1/DTD/svg11.dtd">
<!-- Uploaded to: SVG Repo, www.svgrepo.com, Generator: SVG Repo Mixer Tools -->
<svg height="800px" width="800px" version="1.1" id="_x32_" xmlns="http://www.w3.org/2000/svg" xmlns:xlink="http://www.w3.org/1999/xlink" 
	 viewBox="0 0 512 512"  xml:space="preserve">
<style type="text/css">
	.st0{fill:#000000;}
</style>
<g>
	<path class="st0" d="M186.507,92.46C200.415,53.184,184.297,0,141.789,0c-42.502,0-58.62,53.184-44.704,92.46H186.507z"/>
	<path class="st0" d="M320.939,236.798c-75.999,0-137.604,61.606-137.604,137.598C183.334,450.387,244.94,512,320.939,512
		c75.991,0,137.597-61.613,137.597-137.604C458.535,298.404,396.93,236.798,320.939,236.798z M353.182,424.16
		c-9.735-0.396-17.29-9.078-16.88-19.388c0.41-10.332,8.63-18.372,18.358-17.999c9.735,0.396,17.282,9.07,16.872,19.388
		C371.121,416.478,362.909,424.534,353.182,424.16z M380.693,362.39c-9.145,2.329-18.627-3.896-21.173-13.916
		c-2.53-9.989,2.807-19.985,11.953-22.314c9.153-2.322,18.626,3.89,21.172,13.9C395.191,350.065,389.845,360.069,380.693,362.39z
		 M417.975,412.828c-8.615,0-15.595-8.376-15.595-18.694c0-10.332,6.98-18.709,15.595-18.709c8.608,0,15.588,8.376,15.588,18.709
		C433.563,404.452,426.583,412.828,417.975,412.828z"/>
	<path class="st0" d="M215.383,253.745c-6.017-14.99-13.952-29.564-24.21-44.711c-18.806-27.772-18.858-59.642-14.252-84.166
		h-70.258c4.606,24.524,4.554,56.395-14.252,84.166c-35.67,52.669-44.129,98.269-36.215,179.412
		c6.584,67.481,29.631,115.215,29.631,115.215h111.93c0,0,3.165-6.577,7.488-18.26c-27.704-28.862-44.845-67.937-44.845-111.005
		C160.4,326.295,181.766,283.189,215.383,253.745z"/>
</g>
</svg>