<?xml version="1.0" encoding="UTF-8"?>
<svg id="a" data-name="Layer 1" xmlns="http://www.w3.org/2000/svg" viewBox="0 0 168 168">
  <defs>
    <style>
      .b {
        fill: #231f20;
        fill-rule: evenodd;
      }
    </style>
  </defs>
  <path class="b" d="M54.75,22.83c4.07-.16,5.49,1.49,6.24,4.56,3.32.05,5.24,1.3,7.92,1.92,6.45-11.33,16.23-3.94,9.84,6.96,19.29,21.27,10.67,17.34,39.84,23.76,26.49,8.38,44.49,35.76,37.2,63.6-4,16.96-10.14,26.16-31.2,26.16-11.38-1.63-34.29,2.31-43.2-1.44.91-5.72,4.67-8.16,10.32-9.12,3.05-.52,7.98.98,9.84-.72-12.62-20.07,2.93-33.25,21.84-31.2v-.72l-.48-.48c-20.15-2.43-34.97,12.65-24,31.44-10.71.22-14.51-4.65-21.6-7.68-5.57,15.01-2.68,22.81-23.28,19.44.01-5.35,6.37-5.36,8.16-8.4,2-2.87,1.47-8.49,2.16-12.48.44-2.52,1.77-7.26,0-8.88h-.24c-1.61,7.24-3.92,14.39-5.76,21.6-10.99,7.33-.8,10.26-20.4,8.16-.08-.48-.16-.96-.24-1.44,2.44-5.94,6.83-3.85,9.6-7.44,1.88-2.43,7.23-31.78,5.52-37.68-2.93-10.13-9.06-23.15-17.52-28.08-11.54-5.2-22.38,0-22.8-16.8-8.9-14.74,24.02-30.26,38.88-30,.57-2.66,1.6-3.63,3.36-5.04ZM50.43,39.87c-2.48,1.14-4.47,1.58-6,3.6v.24c5.28,1.74,8.17.6,11.76-2.16-.08-.16-.16-.32-.24-.48-1.75-.53-3.19-1.12-5.52-1.2Z"/>
</svg>