<?xml version="1.0" encoding="iso-8859-1"?>
<!-- Uploaded to: SVG Repo, www.svgrepo.com, Generator: SVG Repo Mixer Tools -->
<svg fill="#000000" height="800px" width="800px" version="1.1" id="Layer_1" xmlns="http://www.w3.org/2000/svg" xmlns:xlink="http://www.w3.org/1999/xlink" 
	 viewBox="0 0 512.004 512.004" xml:space="preserve">
<g>
	<g>
		<path d="M468.715,349.826C497.835,314.05,512,276.311,512,234.669c0-117.632-114.837-213.333-256-213.333S0,117.037,0,234.669
			s114.837,213.333,256,213.333c37.888,0,56.277-7.232,82.453-18.283c39.488,26.688,89.813,42.389,126.272,53.76
			c6.976,2.176,13.461,4.203,19.264,6.123c2.197,0.725,4.459,1.067,6.677,1.067c7.253,0,14.208-3.712,18.176-10.155
			c5.184-8.405,3.883-19.264-3.093-26.261C468.885,417.367,467.904,366.551,468.715,349.826z M362.667,277.335H149.333
			c-11.776,0-21.333-9.557-21.333-21.333c0-11.776,9.557-21.333,21.333-21.333h213.333c11.776,0,21.333,9.557,21.333,21.333
			C384,267.778,374.443,277.335,362.667,277.335z M362.667,192.002H213.333c-11.776,0-21.333-9.557-21.333-21.333
			s9.557-21.333,21.333-21.333h149.333c11.776,0,21.333,9.557,21.333,21.333S374.443,192.002,362.667,192.002z"/>
	</g>
</g>
</svg>