<?xml version="1.0" encoding="iso-8859-1"?>
<!-- Uploaded to: SVG Repo, www.svgrepo.com, Generator: SVG Repo Mixer Tools -->
<svg fill="#000000" height="800px" width="800px" version="1.1" id="Layer_1" xmlns="http://www.w3.org/2000/svg" xmlns:xlink="http://www.w3.org/1999/xlink" 
	 viewBox="0 0 511.999 511.999" xml:space="preserve">
<g>
	<g>
		<path d="M387.656,219.429H36.572c-6.703,0-13.04,3.063-17.202,8.318c-4.162,5.256-5.693,12.124-4.159,18.65l58.514,248.685
			c2.333,9.911,11.178,16.916,21.361,16.916h234.056c10.183,0,19.027-7.006,21.361-16.916l13.23-56.226h23.923
			c60.496,0,109.714-49.218,109.714-109.714C497.37,268.646,448.154,219.429,387.656,219.429z M387.656,394.972h-13.599
			l30.461-129.46c28.154,7.468,48.966,33.159,48.966,63.631C453.485,365.44,423.956,394.972,387.656,394.972z"/>
	</g>
</g>
<g>
	<g>
		<path d="M169.112,94.197C158.354,83.44,153.598,78.165,153.6,65.827c-0.001-12.332,4.756-17.608,15.516-28.366
			c8.571-8.568,8.572-22.462,0.006-31.031c-8.569-8.571-22.462-8.572-31.033-0.004c-11.976,11.973-28.379,28.372-28.375,59.402
			c-0.004,31.033,16.394,47.43,28.369,59.402c10.759,10.759,15.516,16.037,15.516,28.372c0,12.117,9.825,21.943,21.943,21.943
			s21.943-9.826,21.943-21.943C197.486,122.567,181.087,106.169,169.112,94.197z"/>
	</g>
</g>
<g>
	<g>
		<path d="M286.14,94.197c-10.758-10.758-15.514-16.033-15.512-28.371c-0.001-12.332,4.756-17.608,15.516-28.366
			c8.571-8.568,8.572-22.462,0.006-31.031c-8.569-8.571-22.462-8.572-31.033-0.004c-11.976,11.973-28.379,28.372-28.375,59.402
			c-0.004,31.033,16.394,47.43,28.369,59.402c10.759,10.759,15.516,16.037,15.516,28.372c0,12.117,9.825,21.943,21.943,21.943
			c12.118,0,21.943-9.826,21.943-21.943C314.514,122.567,298.115,106.169,286.14,94.197z"/>
	</g>
</g>
</svg>