<?xml version="1.0" encoding="iso-8859-1"?>
<svg fill="#000000" version="1.1" xmlns="http://www.w3.org/2000/svg"
   width="800px" height="800px" viewBox="0 0 440 375.6" xml:space="preserve">
  <defs>
    <mask id="cut">
      <rect width="440" height="375.6" fill="white"/>
      <rect x="220" y="160" width="220" height="72" rx="18" ry="18" fill="black"/>
      <rect x="282" y="98"  width="72"  height="196" rx="18" ry="18" fill="black"/>
    </mask>
  </defs>

  <g mask="url(#cut)">
    <path d="M264.189,74.338c-34.517-41.977-68.516-70.779-69.946-71.984c-3.723-3.139-9.166-3.139-12.888,0
      c-1.431,1.205-35.43,30.008-69.946,71.984c-47.074,57.246-70.943,109.035-70.943,153.927c0,81.24,66.094,147.334,147.334,147.334
      c81.24,0,147.334-66.094,147.334-147.334C335.133,183.374,311.264,131.584,264.189,74.338z M203.358,327.385
      c-1.281,0.326-2.565,0.472-3.826,0.472c-6.892,0-13.178-4.65-14.957-11.629c-2.104-8.257,2.872-16.65,11.126-18.779
      c2.82-0.742,64.614-17.775,64.611-79.787c0-8.531,6.916-15.449,15.447-15.449c8.532,0,15.45,6.916,15.45,15.447
      C291.215,286.758,233.759,319.649,203.358,327.385z"/>
  </g>

  <!-- left arm: 232 to 318 = 86px. right arm: 318 to 404 = 86px. total width = 172px -->
  <rect x="232" y="172" width="172" height="48" rx="14" ry="14" fill="#000000"/>
  <rect x="294" y="110" width="48"  height="172" rx="14" ry="14" fill="#000000"/>
</svg>