<?xml version="1.0" encoding="UTF-8"?>
<svg id="a" data-name="Layer 1" xmlns="http://www.w3.org/2000/svg" viewBox="0 0 168 168">
  <path d="M114.26,99.8c3.38-.29,1.22-4.22.12-5.98-2.24-3.58-5.34-5.7-7.74-8.92-4.7-6.29-7.36-13.7-13.62-18.75-2.31-1.87-4.94-2.92-7.1-5.11-1.42-1.43-2.6-3.65-3.94-5.28-3.53-4.3-7.63-7.29-10.74-12.21-5.46-8.77-9.24-18.85-18.31-24.61-6.8-4.07-18.16-3.08-20.83,6.25-.26.9-.36,2.97-.57,3.49-.13.31-1.04,1.08-1.33,1.5-.45.66-.53,1.26-.86,1.85-.57,1.05-1.72,1.76-2.43,2.76-.99,1.39-1.73,3.19-1.43,5.01.15.92,1.07.04,1.53-.13,4.96-1.79,8.97-3.35,13.56.64,6.61,6.45,1.65,21.6,1.08,29.92h13.95c2.72,0,4.96,2.12,5.16,4.79,7.24,1.23,12.96,6.95,14.3,14.08-4.3-7.26-11.3-11.54-17.69-11.13,0-.53,0-2.08,0-2.57,0-.97-.79-1.76-1.76-1.76,0,0-28.99,0-28.99,0-.97,0-1.76.79-1.76,1.76,0,0,0,32.69,0,32.69,0,2.7,2.2,4.9,4.9,4.9h15.98c5.58-.05,10.07-1.62,10.04-8.67,0-.6,1.09-.37,1.22.22.25,1.1-.09,2.21-.2,3.24-.22,2.18-1.12,4.66-3.37,5.37,2.06,1.91,4.35,3.35,6.69,4.25,2.15,1.59,4.41,3.01,6.77,4.22.74,1.33,1.48,3.98.36,5.2-1.42,1.54-6.55,4.53-8.52,4.62-1.69-.23-3.44-.81-5.17-.68-1.78.15-2.74,1.76-4.16,2.78-1.16.85-2.63,2.13-2.59,3.66.1.91,1.63-.25,3.05-.22,1,0,2,.06,2.97-.25.41-.07,4.43-1.65,3.5-.61-1.04.87-2.11,1.96-2.36,3.36-.17.82-.05,1.48.28,1.57.45.18,1.34-.63,2.27-1.18.65-.38,1.35-.66,2.02-1.02,1.64-.83,3.39-2.35,5.01-2.46,1.65-.12,1.21.79.44,1.74-.36.46-.59,1.12.3,1.29.85.17,2,.17.12.57-2.06.34-4.72.71-5.77,2.8-.37.72-.02,1.25.89,1.24,1.77-.06,3.63,0,5.31-.54,1.25-.42,2.85-.96,2.83-.7-.9,1-2.46,1.83-2.67,3.31-.15.71.02,1.23.47,1.24,1.4-.27,2.82-1.43,4.33-1.73,5.21-1.9,6.89-4.64,12.67-1.91.41.1.83.14,1.25.14,1.28-.08,2.74.32,3.13-.1.36-.72-.42-1.71-.96-2.22-1.26-1.23-3.37-1.03-4.55-2.26-1.78-2.01.02-4.88,1.03-6.83,2.01-1.74,3.48-3.57,3.94-6.36.3-.23,3.58-.31,4.25-.42,1.84-.29,2.93-1.06,4.91-.6,13.57,4.22,27.33,7.16,41.27,9.52,4.04.57,23.1,4.6,18.28-3.81-.6-.86-1.48-1.58-2.12-2.4-1.22-1.47-.52-2.95-.95-3.37-1.29-1.01-3.55,0-4.99-.54-.85-.28-.68-1.13-1.19-1.69-.75-.73-2.59-.39-4.76-.45-1.71-.04-3.47-.34-5.08-.81-.7-.25-2.78-.73-2.03-1.67.8-.84,4.81-1.58,5.86-3.36,2.77-4.11-12.74-8.79-15.33-10.99-2.71-2.57-7.64-2.51-10.16-5.68ZM53.88,133.06h-2.24c.12-.33.84-.33,1.11-.34.3-.01,1.28-.19,1.13.34ZM74.05,126.39c.79-.91.87-2.18,2.3-1.21.75.51,2.01,3.11,2.16,4.05-.08,2.36-5.21,10.25-7.75,7.41-1.74-2.63-5.85-2.99-2.23-6.13,1.78-1.5,3.93-2.31,5.52-4.12Z"/>
</svg>