<?xml version="1.0" encoding="iso-8859-1"?>
<!-- Uploaded to: SVG Repo, www.svgrepo.com, Generator: SVG Repo Mixer Tools -->
<svg fill="#000000" height="800px" width="800px" version="1.1" id="Layer_1" xmlns="http://www.w3.org/2000/svg" xmlns:xlink="http://www.w3.org/1999/xlink" 
	 viewBox="0 0 511.999 511.999" xml:space="preserve">
<g>
	<g>
		<path d="M502.174,33.384L478.559,9.769c-13.026-13.026-34.207-13.026-47.233,0l-96.535,96.533
			c-47.682-22.663-101.932-16.16-135.637,17.541c-10.666,10.655-18.659,23.524-23.867,38.383
			c-49.734-4.811-96.303,10.933-129.662,44.291C-19.483,271.63-14.188,382.884,57.433,454.51
			c72.833,72.832,183.68,76.117,247.994,11.813c33.359-33.353,49.114-79.961,44.297-129.662
			c14.853-5.214,27.716-13.205,38.371-23.867c33.706-33.701,40.211-87.953,17.55-135.64l96.529-96.533
			C515.2,67.602,515.2,46.405,502.174,33.384z M175.527,407.273c-6.523,6.523-17.093,6.523-23.617,0l-47.233-47.239
			c-6.523-6.523-6.523-17.098,0-23.617c6.523-6.523,17.093-6.523,23.617,0l47.233,47.239
			C182.051,390.181,182.051,400.755,175.527,407.273z M246.387,312.797v0.006c-12.624,12.624-34.642,12.602-47.244,0
			c-13.015-13.026-13.015-34.217,0-47.239c13.042-13.055,34.193-13.061,47.244,0C259.427,278.603,259.464,299.72,246.387,312.797z
			 M280.281,255.289c-2.838-4.797-6.231-9.305-10.278-13.349c-4.042-4.045-8.552-7.438-13.346-10.275L407.707,80.621l23.619,23.621
			L280.281,255.289z"/>
	</g>
</g>
</svg>