<?xml version="1.0" encoding="UTF-8"?>
<svg id="a" data-name="Layer 1" xmlns="http://www.w3.org/2000/svg" viewBox="0 0 168 168">
  <defs>
    <style>
      .b {
        fill: #010101;
      }
    </style>
  </defs>
  <path class="b" d="M102.73,55.7c-6.03.53-10.63,5.08-10.62,10.33.11-.01.22-.02.32-.03.72-.06,1.4.1,1.98.41,3.85-2.71,8.16-4.8,12.62-6.04.06-.26-.03-.47-.11-.71-.35-1.03-1.17-2.55-2.03-3.97-.7-.06-1.43-.05-2.16,0Z"/>
  <path class="b" d="M56.48,97.05c.37,1.39.69,2.82.91,4.25.16,1.07.11,2.3.35,3.29.04.18-.12.28.22.23,4.09-1.84,7.97-4.18,11.31-7.2,5.91-5.35,9.33-12.5,13.64-19.03-.19-.61-.31-1.24-.37-1.88-.25-2.83.89-5.65,3.06-7.7l-.14-1.62c-.39-4.41,1.17-8.71,4.37-12.12,2.77-2.95,6.49-4.91,10.61-5.64-15.62-17.39-43.89-16.46-60.9-.86-7.52,6.9-13.08,16.16-14.1,26.47,15.09-6.66,27.54,8.73,31.05,21.81Z"/>
  <path class="b" d="M102.62,98.55c-1.61-3.67-4.24-6.77-6.96-9.65,3.74.96,7.34,2.42,10.77,4.17,2,1.02,3.86,2.56,6.14,2.81,3.55.39,6.91-.61,9.91-2.45.32-4.73,2.02-10.38,6.7-12.42l-.37-.31c-3.14-1.31-6.64-1.39-9.95-.68-.62,4.44-2.33,8.65-5.6,11.76.53-1.3,1.19-2.54,1.67-3.87,1.29-3.62,1.47-7.46,1.44-11.31-.03-4.46-3.99-8.16-6.09-10.28-.78-.79-2.1-1.3-3.24-1.77-.54-.22-2.25-.84-2.74-.77-1.09.15-4.45,2.01-5.55,2.64-.99.57-1.93,1.17-2.81,1.8.06.2.11.41.13.63l1.16,13.25c.08.86-.23,1.73-.84,2.38-.58.61-1.37.99-2.23,1.07-.35.03-.7.05-1.05.05-2.46,0-4.82-.76-6.74-2.19-.85-.64-1.58-1.38-2.16-2.2-4.28,6.58-7.88,13.55-14.41,19.08-1.65,1.4-4.83,3.12-6.07,4.4-.82.84-1.78,2.6-2.59,3.63-9.78,12.47-22.16,21.5-36.37,28.4-1.08,1.21-.35,2.57,1.3,2.37,3.25-.4,8.67-2.43,11.83-3.64,17.4-6.66,34.28-18.64,42.51-35.76-1.95,10.72-7.69,20.36-14.71,28.52-3.29,3.82-7.09,7.63-10.85,11-1.81,1.62-4.08,3.19-5.77,4.85-.43.43-.83.69-.83,1.37,0,2.37,3.67.67,4.85.23,16.29-5.99,35.51-26.11,36.49-44.06.18-3.35-.38-5.67-.88-8.84-.03-.16-.16-.53.11-.49,1.46,3.26,2.67,6.54,3.17,10.11.5,3.63,0,7.47,2.08,10.68-2.49,4.15-5.03,8.32-6.94,12.78-2.63,6.17-2.53,11.98-8.33,16.4-.76.57-2.94,1.59-3.03,2.43-.25,2.19,2.37,1.31,3.56.98,11.26-3.11,18.4-16.29,20.67-26.96.31-1.47.56-4.74,1-5.83.17-.42,1.44-1.65,1.86-2.39,2.21-3.9,1.46-7.97-.25-11.89Z"/>
  <path class="b" d="M32.68,101.89c1.34,3.09,2.64,7.36.8,10.45,5.49,3.55,13.46,3.67,18.93-.02,2.13-1.43,2.65-2.91,2.88-5.47.92-10.55-7.17-26.34-17.54-29.9-9.45-3.25-17.92,2.4-18.4,12.33l.32,3.09c6.26-1.16,10.79,4.4,13.01,9.52Z"/>
  <path class="b" d="M147.62,97.54c-.89-.94-2.33-1.79-3.06-2.63-.94-1.08-1.98-3.47-2.96-4.85-3.16-4.43-9.97-11.29-14.6-4.64-3.58,5.13-2.62,12.99-1.6,18.8,10.9.71,19.12,6.98,21.62,17.75.35,1.49.47,4.43.95,5.58.33.8,1.48.89,2.07.33.4-.38,1.39-2.14,1.68-2.72,4.42-8.71,2.61-20.56-4.1-27.61Z"/>
  <path class="b" d="M109.54,120.75c5.34.42,10.13-2.64,13.5-6.52.28-.32,1.17-1.34,1.08-1.67-.1-.38-1.24-2.1-1.55-2.56-4.69-7.19-12.41-13.02-20.24-16.39,4.02,5.93,6.33,14.17.93,20.07,1.15,1.8,2.13,3.72,3.31,5.49.93,1.38,1.22,1.45,2.96,1.59Z"/>
  <path class="b" d="M28.53,112.71c4.17-.35,4.05-3.72,3.19-6.97-1.13-4.24-5.3-11.49-10.42-11.19-1.46.09-2.55.76-3.44,1.88-1.84,2.36-4.98,9.15-3.69,11.98,1.75,3.85,10.72,4.6,14.36,4.29Z"/>
  <path class="b" d="M119.65,131.31c.7-5.04,2.27-9.94,4.07-14.66-4.38,4.41-10.16,7.33-16.53,5.92-.84,7.69,1.67,15.48,7.5,20.63.64.57,3.1,2.54,3.81,2.57,1.8.07,1.04-2.42.97-3.41-.26-3.69-.34-7.37.17-11.05Z"/>
  <path class="b" d="M141.19,115.95c-.08-.62.08-1.35-.05-1.92-.21-.92-2.59-2.83-3.41-3.42-3.41-2.46-7.54-3.89-11.73-4.27,1.61,7.57,6.37,14.67,13.25,18.38.71.38,2.77,1.46,3.46,1.41,2.06-.14.5-2.57.17-3.52-.71-2.04-1.41-4.52-1.68-6.66Z"/>
  <path class="b" d="M126.15,116.2c-1.59,3.88-3.09,7.84-3.88,11.98-.17.89-.54,2.59-.53,3.42,0,.56.55,1.8.69,2.5.48,2.41.61,4.87.71,7.33.42,1.01,1.49,1.09,2.24.34.46-.45,1.51-2.05,1.88-2.67,3.11-5.06,3.19-10.33,1.74-15.98-.6-2.34-1.53-4.94-2.87-6.91Z"/>
  <path class="b" d="M86.94,67.25l.21,2.38c-2.12,1.71-3.36,4.24-3.12,6.94.4,4.57,4.88,7.92,9.98,7.47,1.02-.09,1.79-.9,1.71-1.82l-1.16-13.25c-.06-.65-.52-1.16-1.15-1.38h0c-.12-.04-.25-.08-.39-.09-.01,0-.02,0-.03,0-.14-.02-.28-.02-.43-.01-.63.06-1.25.17-1.84.33l-.08-.89c-.56-6.39,4.8-12.1,11.95-12.73.43-.04.85-.05,1.28-.05.14,0,.29.01.43.02.27,0,.55.02.82.04.17.02.34.04.52.06.23.03.47.06.7.1.19.03.37.07.55.11.21.04.41.09.62.14.19.05.38.11.57.17.18.06.36.12.54.18.2.07.4.15.59.23.16.06.31.13.46.2.21.1.41.19.61.3.13.07.25.14.38.21.22.12.43.25.64.38.09.06.18.12.27.18.23.16.45.31.67.48.05.04.09.07.13.11,1.93,1.55,3.34,3.63,3.92,6.03.13.51.23,1.03.27,1.57l.08.89c-.61-.06-1.23-.06-1.87,0-.68.06-1.24.44-1.52.96,2.28,2.39,5.07,5.84,5.1,10.08,0,.49,0,.99,0,1.49l.08-.02c1.51-.32,3.02-.49,4.48-.49.26,0,.51.02.76.03.82-1.37,1.23-2.95,1.08-4.59-.24-2.7-1.9-4.98-4.28-6.29l-.21-2.38c-.03-.29-.08-.57-.12-.86h0s0,0,0,0c-.22-1.46-.67-2.83-1.33-4.11,0,0,0,0,0-.01-.21-.42-.45-.82-.7-1.21,0-.02-.02-.03-.03-.04-.25-.38-.51-.75-.8-1.11-.02-.03-.05-.06-.07-.08-.27-.34-.56-.67-.87-.99-.04-.04-.08-.08-.12-.12-.29-.3-.6-.59-.92-.86-.06-.06-.13-.11-.2-.16-.31-.25-.62-.5-.94-.74-.09-.07-.19-.13-.28-.19-.31-.21-.62-.42-.95-.61-.13-.07-.26-.14-.38-.21-.31-.17-.62-.34-.94-.49-.16-.08-.33-.14-.49-.22-.3-.13-.6-.26-.9-.38-.2-.07-.41-.14-.61-.2-.29-.09-.57-.19-.86-.27-.24-.07-.49-.12-.73-.17-.27-.06-.53-.13-.8-.18-.29-.05-.58-.08-.87-.12-.24-.03-.48-.07-.73-.1-.35-.03-.7-.04-1.05-.05-.2,0-.39-.03-.59-.03-.55,0-1.11.02-1.68.07-9.19.8-16.08,8.14-15.36,16.36Z"/>
</svg>