<?xml version="1.0" encoding="UTF-8"?>
<svg id="a" data-name="Capa 1" xmlns="http://www.w3.org/2000/svg" viewBox="0 0 800 800">
  <path d="M324.53,421.34c-9.32-2.83-9.32-16.03,0-18.86,130.23-39.58,170.35-79.7,209.94-209.94,2.83-9.32,16.03-9.32,18.86,0,28.51,93.81,57.3,140.86,119.85,174.63,6.05-17.83,9.43-35.54,9.43-52.86,0-101.62-60.31-199.25-167.77-199.25s-147.05,101.91-147.05,101.91c0,0-45.25-101.91-147.05-101.91-111.24,0-169.67,99.64-169.67,199.25,0,165.39,316.73,370.62,316.73,370.62,0,0,71.36-46.07,146.13-112.4-35.17-85.03-81.16-118.3-189.38-151.19Z"/>
  <path d="M721.87,411.91c-118.65,32.76-145.21,59.32-177.97,177.97-32.76-118.65-59.32-145.21-177.97-177.97,118.65-32.76,145.21-59.32,177.97-177.97,32.76,118.65,59.32,145.21,177.97,177.97Z"/>
</svg>