<?xml version="1.0" encoding="UTF-8"?>
<svg id="Capa_1" xmlns="http://www.w3.org/2000/svg" version="1.1" viewBox="0 0 800 800">
  <!-- Generator: Adobe Illustrator 29.1.0, SVG Export Plug-In . SVG Version: 2.1.0 Build 142)  -->
  <defs>
    <style>
      .st0 {
        display: none;
      }
    </style>
  </defs>
  <path class="st0" d="M400,0C179.1,0,0,179.1,0,400s179.1,400,400,400,400-179.1,400-400S620.9,0,400,0ZM561.2,323c10.2-21.8,13.2-45,10.1-67.2,20.2-6.3,42.7-5.4,63.4,4.3,44.1,20.6,63.2,73,42.6,117.1s-73,63.2-117.1,42.6c-20.7-9.6-35.9-26.3-44-45.8,19-11.9,34.8-29.2,45-51ZM400,119.6c73.1,0,132.3,59.2,132.3,132.3s-59.2,132.3-132.3,132.3-132.3-59.2-132.3-132.3c0-73.1,59.2-132.3,132.3-132.3ZM161.3,260.1c20.7-9.6,43.2-10.6,63.4-4.3-3.1,22.2,0,45.4,10.1,67.2,10.2,21.8,26,39.1,45,51-8.2,19.5-23.3,36.2-44,45.8-44.1,20.6-96.5,1.5-117.1-42.6-20.6-44.1-1.5-96.5,42.6-117.1ZM118.2,516.5c-4.7-11.1-8.7-22.4-12.1-33.9,19.9-11.6,43-18.2,67.7-18.2h28.6c-27.8,28.9-44.8,68.2-44.8,111.8s.2,6.4.7,9.5c-16.2-21.2-29.6-44.4-40.1-69.1ZM591.1,624.9c-51.5,44-118.3,70.5-191.2,70.5s-139.7-26.5-191.2-70.5c-12.5-10.7-19.8-26.4-19.8-42.9,0-74.1,60-133.4,134.1-133.4h153.9c74.1,0,133.9,59.3,133.9,133.4s-7.2,32.1-19.8,42.8ZM677.9,516.5c-10.5,24.8-23.9,47.9-40.1,69.1.4-3.1.7-6.3.7-9.5,0-43.5-17-82.8-44.8-111.8h28.6c24.7,0,47.9,6.6,67.7,18.2-3.4,11.5-7.4,22.8-12.1,33.9Z"/>
  <g>
    <path d="M545.4,369.3h-273.1c-8.4,0-15.2,6.8-15.2,15.2s6.8,15.2,15.2,15.2h273.1c8.4,0,15.2-6.8,15.2-15.2s-6.8-15.2-15.2-15.2Z"/>
    <path d="M424,445.2h-151.7c-8.4,0-15.2,6.8-15.2,15.2s6.8,15.2,15.2,15.2h151.7c8.4,0,15.2-6.8,15.2-15.2s-6.8-15.2-15.2-15.2Z"/>
    <path d="M545.4,293.5h-273.1c-8.4,0-15.2,6.8-15.2,15.2s6.8,15.2,15.2,15.2h273.1c8.4,0,15.2-6.8,15.2-15.2s-6.8-15.2-15.2-15.2Z"/>
    <path d="M400,0C179.1,0,0,179.1,0,400s179.1,400,400,400,400-179.1,400-400S620.9,0,400,0ZM651.6,505.9c0,33.5-27.2,60.7-60.7,60.7h-75.9c-9.6,0-18.5,4.5-24.3,12.1l-57.7,76.9c-10.1,13.4-29.1,16.1-42.5,6.1-2.3-1.7-4.3-3.8-6.1-6.1l-57.7-76.9c-5.7-7.6-14.7-12.1-24.3-12.1h-75.9c-33.5,0-60.7-27.2-60.7-60.7v-242.8c0-33.5,27.2-60.7,60.7-60.7h364.1c33.5,0,60.7,27.2,60.7,60.7v242.8Z"/>
  </g>
</svg>