<?xml version="1.0" encoding="UTF-8"?>
<svg id="a" data-name="Layer 1" xmlns="http://www.w3.org/2000/svg" viewBox="0 0 168 168">
  <path d="M100.32,123.71c4.46,5.55,1.8,7.21-4.56,8.45-2.79-.9-7.38-.57-7.85,3.1h18.79c9.41-5.54,5.29-5.16,5.82-14.1-5.46-3.02-7.29-9.32-12.98-12.1-.3.24.7,2.09,0,1.89-1.54-.91-3.62-1.92-5.52-2.24.02,5.52,1.78,11.51,6.29,15Z"/>
  <path d="M55.02,111.51c5.7,13.23-4.89,20.83-4.89,20.83-1.22-.07-4.59,1.92-3.02,2.92.29-.16,10.61.19,12.11-.06,0,0,5.08-7,5.08-7,7.56-11.76-1.38-19.77-9.1-28-.24-.48.38-.92.74-.53,4.39,4.75,9.82,7.9,12.16,14.47,1.41,4.23,2.34,14.35-.38,18.08-.03.93-8.13,1.05-5.89,3.01,15.92-.47,10.06,2.88,15.05-7.21,8.81-9.07,9.32-23,3.8-33.95,4.49,3.4,4.97,14.51,6.84,13.63,3.08-1.22,6.07-1.41,9.07.11.32.17.71-.1.66-.46-.28-1.97,3.2.3,4.44.91.38.22.83-.13.72-.56-1.2-4.8-1.22-10.26,1.2-14.67-1.93,14.45,2.73,24.52,16.29,30.33,1.84,2.31,7.25,3.15,4.14,6.89-1.41,2.18-3.67,2.33-6,2.07-1.28-.05-5.2,1.67-3.54,2.92,0,0,13.11,0,14.81,0,5.49-5.15,9.56-8.72,3.9-15.44-.12-2.39,2.72-23.22,3.21-28.51,3.01-10.27,4.14-24.97.29-31.43-.07-1.19-.53-13.9.98-17.46-.03-1.44.73-5.42-.7-3.35-.24.34-.77.2-.82-.21-.72-5.34-1.77-10.65-3.8-15.66l-.66,2.02c-2.41-7-7.61-13.06-14.45-16.03l1.31,2.45c-1.17-.42-4.45-3.31-5.84-3.66-2.75,2.11-3.22,8.12-2.28,12.07.09.36-.27.71-.6.55-2.66-1.23,4.62,12.47,5.62,13.74-.49.21-1.28-.27-1.73-.48,2.09,3.64,4.83,8.47,4.87,12.95-.32.55-1.11-.71-1.64-.63.5,2.61,3.49,7.81,1,9.53-22.23.19-35.71,17.38-62.17,3.68-1.53-9.49-6.67-11-12.02-2.77-4.41,1.22-9.1.75-12.7-2.3-8.8-8.28-6.95,3.74-4.69,9.3.25,1.06-3.96,6.41-1.51,5.76.69-.91,1.5-1.71,2.36-1.25.26.1.55-.02.65-.28,1.81-3.3.76,1.99-.39,4.74-.9,1.2-.79-1.41-1.68-.55-3.66,1.25-2.82,4.14-2.35,7.06-2.71,5.6-4.04.15-8.44.48,8.62,4.77,4.95,3.1-1.55,4.31.77.39,6.94-.01,4.92,2.21-1.21.46-2.45.98-3.2,2.1,1.02-.16,3.6-1.73,4.48-.95,5.34,7.28,13.82-.64,18.19,7.85.55-1.54-3.63-4.28-2.03-5.06,9.83.88,13.02,15.07,19.21,21.47ZM48,54.59c5.54-6.16,8.01,13.12,3.79,13.04-.39-.38-1.21-.95-.93-1.39,1.28-2.7,2.39-9.06-.96-10.35-1.26.49-2.61,3.61-3.05,5.65-.14.63-.83.94-1.39.63-3.21-1.39,1.29-5.87,2.54-7.57ZM28.06,61.8c-1.68-1.13-1.75-4.9-1.57-7.23,1.53-1.7,3.22,4.64,3.64,5.36.12.52-1.25,2.02-2.06,1.87ZM43.09,85.53c-.69-.03-9.93-1.46-7.98.44,2.04.74,5.4,1.5,7.12,3.26-6-4.85-14.03,2.64-18.34-1.52,1.01-1.2,1.76-2.76.41-4.26-.16-.19-.14-.48.05-.65,3.75-4.97,6.77-2.92,10.03,1.03,2.96.49,6.29.39,9.22,1.62.04.33-.33.1-.52.09ZM58.9,80.66c-.54.85-4.06.37-3.1,1.74.57.27,2.14.65,1.16,1.37-.34.33-4.45,1.02-3.3,1.97-.37,1.81-4.42,1.38-6.1,1.78-1.83-.92,3.36-2.25,3.57-2.87,1.21-1.39-4.89-3.44-1.69-3.94,1.25-2-12.33-8.62-14.54-7.98-.48.06-.56-.35-.54-.82-.91-2.24-3.2,4.63-4.12,2.26.31-2.95,1.43-6.23,4.29-7.26.36-.13.68.23.57.6-.58,1.92,4.03-.66,11.43,3.81l-1.55.69,5.83,2.31c.03,1.48,7.21,5.54,8.3,5.97.09.4-.06.28-.22.38ZM134.59,51.85c-3.45,2.36-16.05,7.99-13.23-.32,3.91-.94,9.06-1.22,12.75-4.07,1.23-.83.75,4.22.48,4.39ZM132.98,34.27c3.56,7.42-6.23,10.02-12,10.28-.88-.14-.6-2.02-.85-2.47-.06-.23-.41-1.06-.62-1.75,2.97-2.43,9.56-2.2,12.66-6.31.28-.25.72-.11.81.25ZM116.45,31.43c-6.22-8.66,1.85-1.38,9.58-11.17,1.33-.02,2.83,3.65,2.98,5.05-2.56,3.4-8.24,7.4-12.56,6.12Z"/>
</svg>