<?xml version="1.0" encoding="utf-8"?>

<!DOCTYPE svg PUBLIC "-//W3C//DTD SVG 1.1//EN" "http://www.w3.org/Graphics/SVG/1.1/DTD/svg11.dtd">
<!-- Uploaded to: SVG Repo, www.svgrepo.com, Generator: SVG Repo Mixer Tools -->
<svg height="800px" width="800px" version="1.1" id="_x32_" xmlns="http://www.w3.org/2000/svg" xmlns:xlink="http://www.w3.org/1999/xlink" 
	 viewBox="0 0 512 512"  xml:space="preserve">
<style type="text/css">
	.st0{fill:#000000;}
</style>
<g>
	<path class="st0" d="M497.122,281.105c-0.751-51.111-20.638-102.113-55.506-141.111c-17.435-19.478-38.723-35.912-63.298-47.474
		c-24.558-11.57-52.404-18.201-82.451-18.185c-2.662,0-5.323,0.05-8.001,0.159c-29.796,0.918-56.842,6.848-80.59,16.951
		c-35.661,15.148-63.741,39.782-82.552,69.796c-18.844,30.006-28.529,65.267-28.512,101.854
		c-0.016,46.18,18.836,88.198,49.134,118.471c30.281,30.306,72.291,49.15,118.48,49.143c22.698,0.008,43.678-4.038,62.305-11.646
		c27.962-11.37,50.452-30.848,65.484-55.198c15.099-24.35,22.89-53.414,22.89-84.262v-1.043l-0.116-1.034
		c-2.052-20.228-7.491-38.088-15.482-53.32c-11.98-22.899-29.631-39.633-48.934-50.335c-19.336-10.728-40.216-15.675-59.894-15.7
		c-8.1,0-15.999,0.851-23.574,2.577c-24.492,5.581-46.54,16.984-62.848,34.36c-8.133,8.659-14.756,18.819-19.269,30.172
		c-4.53,11.337-6.924,23.816-6.916,36.93l0.008,1.093c0.225,23.641,9.86,45.255,25.392,60.82c15.5,15.6,37.172,25.326,60.954,25.318
		c17.968-0.025,34.226-7.049,46.222-18.035c6.006-5.514,10.995-12.088,14.565-19.529c3.571-7.441,5.689-15.8,5.689-24.55
		c0-6.123-1.051-12.396-3.22-18.452c-2.186-6.056-5.456-11.887-9.727-17.209c-4.989-6.282-11.12-10.852-17.235-13.564
		c-6.123-2.736-12.046-3.67-17.042-3.67c-3.62,0.008-6.732,0.434-9.827,1.293c-1.593,0.476-3.112,0.959-5.381,2.16
		c-1.152,0.651-2.51,1.402-4.588,3.32c-1.017,0.984-2.277,2.286-3.62,4.546c-0.667,1.134-1.352,2.536-1.902,4.262
		c-0.542,1.727-0.934,3.812-0.934,6.132c-0.016,2.778,0.618,5.823,1.802,8.409c1.034,2.277,2.402,4.171,3.77,5.614
		c2.419,2.528,4.672,3.779,6.415,4.588c2.636,1.185,4.379,1.468,5.747,1.702c1.376,0.184,2.386,0.225,3.262,0.225
		c1.81-0.008,3.044-0.166,4.254-0.35c0.826-0.133,1.626-0.284,2.444-0.459c0.292,0.259,0.659,0.625,1.101,1.185
		c1.652,2.06,2.612,3.887,3.203,5.547c0.602,1.66,0.843,3.17,0.843,4.721c0,2.194-0.526,4.53-1.694,6.982
		c-1.735,3.67-5.055,7.474-9.359,10.177c-4.321,2.72-9.443,4.329-14.79,4.321c-12.688-0.017-23.85-5.064-32.166-13.364
		c-8.267-8.334-13.414-19.736-13.548-32.55l-0.009-0.684c0.009-8.234,1.46-15.433,4.029-21.889
		c3.863-9.66,10.311-17.894,19.328-24.751c8.993-6.832,20.604-12.146,34.068-15.208c4.371-1,9.309-1.56,14.548-1.551
		c8.509-0.017,17.786,1.468,26.827,4.613c13.597,4.73,26.578,13.072,36.771,25.585c9.994,12.354,17.585,28.863,20.154,51.594
		c-0.117,15.649-2.753,30.223-7.625,43.203c-7.474,19.92-19.937,36.162-36.871,47.716c-16.967,11.511-38.631,18.527-65.508,18.552
		c-35.045-0.008-66.677-14.206-89.742-37.238c-23.032-23.074-37.23-54.706-37.246-89.742c0.033-39.299,13.73-75.261,39.123-101.872
		c12.713-13.322,28.421-24.375,47.232-32.383c18.803-8.008,40.759-12.964,65.968-13.731l0.142-0.008h0.025
		c2.219-0.091,4.396-0.133,6.541-0.126c24.107,0,45.813,5.223,65.15,14.307c28.946,13.622,52.654,36.145,69.221,63.231
		c16.584,27.053,25.86,58.552,26.244,89.141c0.016,1.027,0.034,2.044,0.034,3.079c-0.017,28.204-5.272,53.788-14.665,76.411
		c-14.114,33.902-37.538,61.238-67.519,80.341c-29.997,19.078-66.585,29.872-107.018,29.88c-1.092,0-2.177-0.008-3.245-0.025h-0.217
		h-0.025c-57.809-0.033-108.736-21.98-145.975-58.868c-37.188-36.929-60.687-88.833-62.28-149.904
		c-0.05-1.827-0.084-3.646-0.084-5.464c-0.016-55.39,21.672-108.619,58.026-148.352c18.152-19.854,39.941-36.329,64.416-48.116
		c24.492-11.77,51.669-18.894,80.916-20.028L257.276,0c-34.894,1.36-67.636,9.918-96.966,24.033
		c-44.011,21.188-80.324,54.78-105.666,95.348c-25.334,40.575-39.782,88.224-39.782,137.724c0,2.169,0.024,4.338,0.083,6.515
		c1.777,70.99,29.547,133.37,74.293,177.707c44.629,44.338,106.209,70.622,174.346,70.647v0.008c1.25,0,2.502,0.017,3.728,0.017
		c63.557,0.025,121.266-22.832,162.925-63.057c20.821-20.087,37.606-44.479,49.134-72.199c11.528-27.72,17.785-58.744,17.768-92.011
		C497.139,283.515,497.139,282.323,497.122,281.105z"/>
</g>
</svg>