<?xml version="1.0" encoding="utf-8"?>
<svg xmlns="http://www.w3.org/2000/svg" viewBox="0 0 500 500" xmlns:bx="https://boxy-svg.com" width="500px" height="500px"><defs><bx:export><bx:file format="svg"/></bx:export></defs><path d="M 144.672 174.115 L 234.536 167.831 C 252.317 166.588 267.741 179.995 268.984 197.777 L 281.051 370.349 C 282.295 388.131 268.889 403.555 251.106 404.798 L 161.242 411.082 C 143.459 412.325 128.037 398.918 126.793 381.136 L 114.725 208.564 C 113.483 190.782 126.89 175.359 144.672 174.115 Z M 182.46 269.851 L 139.095 274.514 L 175.955 297.036 L 166.913 338.618 L 200.466 311.341 L 238.242 332.378 L 222.118 292.997 L 254.508 264.416 L 210.99 267.355 L 193.231 228.655 L 182.46 269.851 Z" style="stroke-width: 1px; fill-rule: nonzero;"/><path d="M 249.801 80.774 L 344.926 92.454 C 362.618 94.626 375.201 110.73 373.028 128.423 L 350.867 308.904 C 348.695 326.597 332.591 339.179 314.898 337.006 L 292.088 334.206 L 281.561 183.661 C 280.318 165.878 264.896 152.471 247.113 153.715 L 207.991 156.451 L 213.832 108.875 C 216.005 91.183 232.108 78.602 249.801 80.774 Z" style="stroke-width: 1px;"/></svg>