<?xml version="1.0" encoding="utf-8"?>
<svg fill="#000000" height="800px" width="800px" version="1.1" id="Layer_1" xmlns="http://www.w3.org/2000/svg" viewBox="0 0 459.863 459.863">
  <g transform="matrix(1, 0, 0, 1, 66.628288, 0)">
    <g>
      <g>
        <path d="M259.999,226.279c-24.558,31.058-57.739,46.482-91.839,46.482c-36.232,0-68.69-17.206-91.839-46.482 C30.403,256.333,0,308.217,0,367.076c0,18.127,9.926,43.389,57.213,60.8c29.496,10.861,68.898,16.841,110.947,16.841 c42.049,0,81.451-5.98,110.947-16.841c47.287-17.411,57.213-42.673,57.213-60.8C336.32,308.217,305.918,256.333,259.999,226.279z "/>
        <path d="M168.16,242.763c53.003,0,93.806-51.234,93.806-111.804c0-60.571-40.808-111.804-93.806-111.804 c-52.995,0-93.806,51.223-93.806,111.804C74.354,191.541,115.169,242.763,168.16,242.763z"/>
      </g>
    </g>
  </g>
</svg>